<?xml version="1.0" standalone="no"?>
<!DOCTYPE svg PUBLIC "-//W3C//DTD SVG 1.1//EN" "http://www.w3.org/Graphics/SVG/1.1/DTD/svg11.dtd">
<svg xmlns="http://www.w3.org/2000/svg">
<metadata>Copyright (C) 2014 by original authors @ fontello.com</metadata>
<defs>
<font id="fontello" horiz-adv-x="1000" >
<font-face font-family="fontello" font-weight="400" font-stretch="normal" units-per-em="1000" ascent="850" descent="-150" />
<missing-glyph horiz-adv-x="1000" />
<glyph glyph-name="utility-edit" unicode="&#xe700;" d="m995-88c-40 115-76 231-115 350-2 7-6 14-12 20l-550 552c-16 17-41 19-61 7-52-32-100-67-141-109-41-38-76-83-107-133-13-19-10-45 7-61l550-553c6-5 12-9 19-12 119-39 238-78 354-118 5-3 10-4 16-4 13 0 22 6 31 15 14 13 16 27 9 46z m-234 105c-46 15-98 31-142 45l-513 516c13 19 29 40 46 59l499-500c10-10 23-13 35-13 13 0 22 5 31 14 20 20 21 47 2 67l-496 496c18 15 35 32 53 46l513-519c15-46 30-92 46-138l-74-73z" horiz-adv-x="1000" />
<glyph glyph-name="utility-settings" unicode="&#xe701;" d="m998 398c-3 23-21 42-44 45-28 3-85 10-85 10-25 6-44 28-44 55 0 11 3 21 9 29 0 1 53 69 53 69 14 18 13 44-2 62-19 25-42 48-67 67-18 15-44 16-62 1-23-17-67-52-67-52-10-5-20-9-32-9-27 0-49 20-54 46l-10 83c-3 23-22 41-45 44-32 3-65 3-96 0-23-3-42-21-45-44l-10-83c-4-26-27-46-54-46-13 0-24 4-34 10l-65 51c-18 15-44 14-62-1-25-19-48-42-67-67-16-18-16-44-1-62l50-65c7-10 11-21 11-33 0-28-21-51-48-55l-81-10c-23-3-42-22-44-45-3-32-3-65 0-96 3-23 21-42 44-45l81-10c27-3 48-26 48-54 0-13-4-24-11-34l-50-65c-15-18-14-44 1-62 19-25 42-48 67-68 10-7 20-11 32-11 10 0 21 3 30 10l65 52c10 6 21 10 34 10 27 0 50-20 54-46 0-1 10-83 10-83 3-23 22-41 45-44 16-1 32-2 48-2s32 1 48 2c23 3 42 21 45 44l10 83c5 26 27 46 54 46 12 0 23-3 32-9l67-53c9-7 20-10 30-10 12 0 22 3 32 11 25 20 48 43 67 68 15 18 16 44 1 62-17 23-52 67-52 68-6 9-9 19-9 31 0 26 19 49 44 54 0 0 57 7 85 10 23 3 41 22 44 45 3 32 3 65 0 96z m-498-218c-94 0-170 76-170 170 0 94 76 170 170 170s170-76 170-170c0-94-76-170-170-170z" horiz-adv-x="1000" />
<glyph glyph-name="utility-warning" unicode="&#xe702;" d="m988-12l-430 794c-11 21-34 35-58 35-25 0-47-14-58-35l-434-801c-11-21-11-46 1-65 13-20 34-33 58-33h866c37 0 67 29 67 67 0 15-5 28-12 38z m-488-14c-42 0-75 33-75 75 0 42 33 75 75 75 42 0 75-33 75-75 0-42-33-75-75-75z m43 276c-3-21-22-40-42-40h-3c-19 0-37 19-41 40-16 88-25 181-33 259-1 18 14 38 32 42 35 6 55 6 89 0 20-4 32-24 31-42-8-78-17-171-33-259z" horiz-adv-x="1000" />
<glyph glyph-name="utility-move" unicode="&#xe703;" d="m807 147c-5-3-9-5-15-5-3 0-6 0-8 1-8 3-13 11-13 19v105h-188v-188h105c8 0 16-5 19-13 3-8 1-17-4-23l-188-187c-5-4-9-6-15-6-6 0-10 2-15 6l-187 187c-6 6-7 15-5 23 3 8 11 13 20 13h104v188h-188v-105c0-8-4-16-13-19-2-1-5-1-8-1-5 0-10 2-15 5l-187 188c-8 8-8 22 0 30l187 187c6 6 15 7 23 5 9-3 13-12 13-20v-104h188v188h-104c-9 0-17 4-20 12-2 9-1 18 5 24l187 187c8 8 22 8 30 0l188-187c5-6 7-15 4-24-3-8-11-12-19-12h-105v-188h188v104c0 8 5 17 13 20 8 2 17 1 23-5l187-187c8-8 8-22 0-30l-187-188z" horiz-adv-x="1000" />
<glyph glyph-name="utility-user" unicode="&#xe704;" d="m966-60c-21 98-75 150-149 197-21 12-46 22-73 34-51 20-109 43-121 81-7 25 3 60 31 103 87 140 102 261 46 358-44 75-118 119-200 119-81 0-156-44-200-119-56-97-41-218 47-358 28-43 38-78 30-103-12-38-70-61-120-81-28-12-54-22-74-34-74-47-128-99-149-197-4-18 7-35 23-40 5-1 119-34 443-34 162 0 271 8 341 16 69 9 100 18 102 18 16 5 27 22 23 40z" horiz-adv-x="1000" />
<glyph glyph-name="utility-3dots" unicode="&#xe801;" d="m193 448c55 0 99-44 99-98 0-54-44-98-99-98s-98 44-98 98c0 54 44 98 98 98z m316 0c54 0 98-44 98-98 0-54-44-98-98-98-54 0-98 44-98 98 0 54 44 98 98 98z m315 0c55 0 99-44 99-98 0-54-44-98-99-98-54 0-98 44-98 98 0 54 44 98 98 98z" horiz-adv-x="1000" />
<glyph glyph-name="utility-add" unicode="&#xe802;" d="m911 425c-2 23-20 41-43 41h-252v251c0 24-18 42-40 44-51 6-103 6-154 0-22-2-40-20-40-44v-251h-251c-24 0-42-18-44-41-6-51-6-102 0-153 2-23 20-40 44-40h251v-252c0-23 18-42 40-44 51-5 103-5 154 0 22 2 40 21 40 44v252h252c23 0 41 17 43 40 6 51 6 102 0 153z" horiz-adv-x="1000" />
<glyph glyph-name="utility-adduser" unicode="&#xe803;" d="m568 373c32 28 64 53 84 92 34 63 50 144 28 214-5 19-13 38-23 54-42 73-122 117-207 117-85 0-163-44-207-117-55-93-40-210 46-346 28-42 40-75 33-99-10-35-65-57-113-76-25-11-49-20-69-33-80-49-120-114-139-203-2-8 0-19 5-26 6-7 14-14 23-15 4-1 101-18 417-18h36c-36 52-57 113-57 182 0 73 21 142 67 197 22 27 50 55 76 77z m182-23c-138 0-250-111-250-250 0-139 112-250 250-250 138 0 250 111 250 250 0 139-112 250-250 250z m150-283c0-10-7-17-17-17h-83v-83c0-10-7-17-17-17h-66c-10 0-17 7-17 17v83h-83c-10 0-17 7-17 17v66c0 10 7 17 17 17h83v83c0 10 7 17 17 17h66c10 0 17-7 17-17v-83h83c10 0 17-7 17-17v-66z" horiz-adv-x="1000" />
<glyph glyph-name="utility-announcement" unicode="&#xe804;" d="m872 706l-1 0-1 0-1 0-2 0c-13 0-18-3-37-11l-754-241c-43-13-76-37-76-104 0-68 31-90 76-105l97-31c0 0-7-42 3-86 10-45 26-75 58-111 32-35 109-69 181-27 72 42 89 118 89 118l326-104c13-7 26-11 40-11h0c98 0 130 179 130 357 0 175-31 353-128 356z m-530-645c-41 0-74 45-74 99 0 8 0 16 2 23l145-46c-8-43-38-76-73-76z m540-3c-29 0-46 103-46 292 0 188 17 291 46 291 29 0 53-103 53-291 0-189-24-292-53-292z" horiz-adv-x="1000" />
<glyph glyph-name="utility-attach" unicode="&#xe805;" d="m920 770c-105 107-276 107-383 0l-458-458c-106-105-106-277 0-383 106-106 278-106 383 0l281 281c65 65 65 170 0 236-65 65-170 65-236 0l-176-177c-25-24-25-63 0-88 25-25 64-25 88 0l177 176c16 16 43 16 59 0s17-43 0-59l-281-280c-57-57-149-57-206 0-57 57-57 149 0 206l458 458c57 57 150 57 206 0s57-149 0-206l-3-3c28-39 44-85 46-131l45 45c107 107 107 278 0 383z" horiz-adv-x="1000" />
<glyph glyph-name="utility-back" unicode="&#xe806;" d="m911 266h-621l268-272c33-33 33-86 0-119-32-33-84-33-117 0l-409 416 0 0c-7 7-52 65 0 118l409 416c33 33 85 33 117 0 33-33 33-86 0-119l-269-273h622c45 0 82-37 82-83 0-46-37-84-82-84z" horiz-adv-x="1000" />
<glyph glyph-name="utility-notification" unicode="&#xe807;" d="m943 141c-6 5-145 117-145 348 0 303-160 361-297 361-136 0-296-58-296-361 0-230-139-343-145-348-18-14-27-37-25-60 3-24 18-44 40-53 6-2 111-47 284-65 17-61 75-107 142-107 68 0 125 46 143 107 173 18 278 63 284 65 21 9 36 29 39 52 3 24-6 47-24 61z" horiz-adv-x="1000" />
<glyph glyph-name="utility-bookmark" unicode="&#xe808;" d="m703 850h-375c-35 0-62-28-62-62v-917c0-8 4-16 12-20 9-2 18-1 24 5l214 214 214-214c4-4 9-6 15-6 2 0 6 0 8 1 8 4 13 12 13 20v917c0 34-28 62-63 62z" horiz-adv-x="1000" />
<glyph glyph-name="utility-call" unicode="&#xe809;" d="m948 129l-231 117s-12 6-18 6c-11 0-21-5-27-13l-99-90c-11-11-28-14-42-5-46 28-90 63-132 105-42 41-76 85-104 132-8 14-6 31 4 42l99 98c7 7 12 17 12 27 0 7-2 12-5 19l-127 231c-6 11-16 19-30 19-56-6-120-24-156-61-130-129-49-421 172-642 148-148 325-231 465-231 69 0 129 21 172 64 38 36 62 94 66 151 0 14-8 25-19 31z" horiz-adv-x="1000" />
<glyph glyph-name="utility-chat" unicode="&#xe80a;" d="m953 627c-11 76-97 149-172 157-93 10-187 15-281 15s-187-5-281-15c-75-8-161-81-173-157-8-59-13-121-13-182 0-60 5-120 13-178 12-76 98-149 173-158 27-3 54-4 81-6v-171c0-13 7-26 20-31 4-1 8-2 13-2 9 0 17 3 23 9l199 193c75 1 150 5 226 13 75 8 161 77 172 153 10 58 14 118 14 179s-4 122-14 181z" horiz-adv-x="1000" />
<glyph glyph-name="utility-check" unicode="&#xe80b;" d="m993 564c9 8 9 22 0 30l-145 146c-8 8-22 8-30 0l-443-444-193 194c-8 8-22 8-30 0l-146-146c-8-8-8-22 0-30l354-354c5-3 9-6 15-6s10 3 15 6l603 604z" horiz-adv-x="1000" />
<glyph glyph-name="utility-checkin" unicode="&#xe80c;" d="m500 850c-202 0-367-173-367-383 0-288 310-587 310-587 41-38 66-42 111 0 0 0 313 299 313 587 0 210-165 383-367 383z m0-540c-96 0-173 78-173 173 0 96 77 174 173 174s174-78 174-174c0-95-78-173-174-173z" horiz-adv-x="1000" />
<glyph glyph-name="utility-chevronleft" unicode="&#xe80d;" d="m498 350l326 344c6 6 10 14 10 23 0 4-2 9-4 13-5 12-17 20-31 20h-258c-10 0-19-4-25-11l-341-367c-11-13-11-31 0-45l341-367c6-6 15-10 25-10h258c14 0 26 7 31 20 6 12 4 26-6 35l-326 345z" horiz-adv-x="1000" />
<glyph glyph-name="utility-chevronright" unicode="&#xe80e;" d="m824 372l-339 367c-7 7-16 11-25 11h-259c-13 0-26-8-31-20-6-12-3-26 5-36l326-344-326-345c-5-6-8-13-8-22 0-4 1-9 3-13 5-13 18-20 31-20h259c9 0 18 4 25 10l339 367c13 14 13 32 0 45z" horiz-adv-x="1000" />
<glyph glyph-name="utility-close" unicode="&#xe80f;" d="m617 350l358-357c32-33 32-85 0-118-33-32-85-32-118 0l-357 358-357-358c-33-32-85-32-118 0-32 33-32 85 0 118l358 357-358 357c-32 33-32 85 0 118 33 32 85 32 118 0l357-358 357 357c32 32 84 32 117 0 32-33 32-85 0-117l-357-357z" horiz-adv-x="1000" />
<glyph glyph-name="utility-dash" unicode="&#xe810;" d="m997 416c-1 19-17 34-35 34h-923c-19 0-35-15-37-34-3-44-3-88 0-132 2-19 18-34 37-34h923c18 0 34 15 35 34 4 44 4 88 0 132z" horiz-adv-x="1000" />
<glyph glyph-name="utility-desktop" unicode="&#xe811;" d="m1000 788v-688c0-35-28-62-62-62h-355v-61l217-88c8-2 13-10 13-18 0-12-10-21-21-21h-584c-9 0-18 7-20 16-2 9 2 19 11 23l218 88v61h-354c-35 0-63 27-63 62v688c0 34 28 62 63 62h875c34 0 62-28 62-62z m-125-63h-750v-562h750v562h0z" horiz-adv-x="1000" />
<glyph glyph-name="utility-down" unicode="&#xe812;" d="m860 571c-8 14-22 24-39 25-2 1-158 10-321 10s-319-9-321-10c-16-1-32-11-39-25-9-15-9-32 0-47 124-220 318-410 327-418 18-16 48-16 66 0 9 8 204 198 327 418 9 15 9 32 0 47z" horiz-adv-x="1000" />
<glyph glyph-name="utility-download" unicode="&#xe813;" d="m476 241c7-6 16-9 24-9s17 3 24 9c7 5 168 143 272 298 7 11 8 27 2 39-7 13-20 21-34 21h-136c-14 84-39 179-51 199-12 22-38 34-77 34s-65-12-77-34c-14-23-38-115-51-199h-136c-14 0-27-8-34-21-6-12-5-28 2-39 103-155 265-293 272-298z m362 91c0-141-12-241-20-300h-636c-8 58-19 158-19 300h-163c0-268 37-401 38-406 10-35 42-60 80-60h763c38 0 71 25 82 61 1 5 37 139 37 405h-162z" horiz-adv-x="1000" />
<glyph glyph-name="utility-email" unicode="&#xe814;" d="m500 183c-49 0-98 13-136 42l-331 253v-464c0-17 13-31 29-33 144-21 292-31 438-31 146 0 294 10 438 31 16 2 29 16 29 33v464l-330-253c-39-29-88-42-137-42z m438 536c-144 21-291 31-438 31-147 0-294-10-438-31-16-2-29-16-29-32v-48c4-12 12-32 37-56l355-268c20-16 47-23 75-23 28 0 55 7 75 23l355 268c25 24 34 44 37 56v48c0 16-13 30-29 32z" horiz-adv-x="1000" />
<glyph glyph-name="utility-error" unicode="&#xe815;" d="m500 850c-276 0-500-224-500-500 0-276 224-500 500-500s500 224 500 500c0 276-224 500-500 500z m337-566c-2-19-17-34-36-34h-602c-19 0-34 15-36 34-4 44-4 88 0 132 2 19 17 34 36 34h602c19 0 34-15 36-34 4-44 4-88 0-132z" horiz-adv-x="1000" />
<glyph glyph-name="utility-event" unicode="&#xe816;" d="m767 233h-134v-133h134v133z m0 200h-134v-133h134v133z m-200 0h-134v-133h134v133z m360 331c-5 1-65 11-160 23-69 8-200 12-200 12-22 1-44 1-67 1-47 0-92-1-133-3 0 0-97-5-200-19-56-8-91-14-94-14-23-6-40-25-40-49v-729c0-24 17-43 40-49 7-1 176-37 427-37 251 0 420 36 427 37 23 6 40 25 40 49v729c0 24-17 43-40 49z m-60-740c-63-10-196-29-367-29-171 0-304 19-367 29v476h734v-476z m-500 209h-134v-133h134v133z m200 0h-134v-133h134v133z m-334 201h134v-134h-134v134z" horiz-adv-x="1000" />
<glyph glyph-name="utility-favorite" unicode="&#xe817;" d="m997 470c-4 13-15 24-27 29-50 22-181 30-295 35-35 103-93 255-141 302-9 9-21 14-34 14-12 0-25-5-35-14-47-47-105-199-140-302-113-5-245-13-295-35-13-5-23-16-27-29-5-14-4-29 3-42 33-59 115-148 218-235-28-115-47-217-52-289-1-18 7-35 23-46 14-10 34-11 50-3 18 11 37 20 57 29 54 28 120 58 198 107 78-49 144-79 198-107 20-9 40-18 57-29 8-3 15-5 23-5 10 0 19 3 27 8 16 11 24 28 23 46-5 72-24 174-52 289 103 87 186 176 218 235 7 13 8 28 3 42z" horiz-adv-x="1000" />
<glyph glyph-name="utility-filter" unicode="&#xe818;" d="m583 284v-412c0-12-10-22-22-22h-122c-13 0-22 10-22 22v412l-371 463c-14 20-15 47-4 68 12 22 34 35 59 35h798c25 0 47-13 59-35 11-21 10-48-4-68l-371-463z" horiz-adv-x="1000" />
<glyph glyph-name="utility-filterlist" unicode="&#xe819;" d="m230 606h679c47 0 85 43 85 91 0 47-38 85-85 85h-679c-47 0-85-38-85-85 0-48 38-91 85-91z m679-161h-320c-47 0-85-40-85-87 0-47 38-85 85-85h320c47 0 85 38 85 85 0 47-38 87-85 87z m0-350h-244c-46 0-84-41-84-88 0-48 38-84 84-84h244c47 0 85 36 85 84 0 47-38 88-85 88z m-406 83h-144v250c0 6-5 10-11 10h-177c-7 0-11-4-11-10v-250h-144c-5 0-9-2-11-7-1-4 0-9 3-12l243-238c3-2 5-3 8-3 3 0 6 1 8 3l244 238c3 3 3 8 2 12-2 5-6 7-10 7l0 0z" horiz-adv-x="1000" />
<glyph glyph-name="utility-frozen" unicode="&#xe81a;" d="m987 350c0-28-23-50-50-50h-141l111-111c20-22 20-56-1-76-11-10-24-15-38-15-13 0-28 5-38 16l-183 186h-93v-95l186-182c21-20 21-54 1-75-10-11-25-16-38-16s-28 5-38 15l-111 109v-139c0-29-23-50-50-50-29 0-50 21-50 50v139l-112-109c-21-20-55-20-76 1-20 21-20 55 1 75l187 183v94h-94l-183-186c-11-11-24-16-38-16-14 0-27 5-37 15-21 20-21 54-1 76l109 111h-140c-28 0-50 22-50 50 0 27 22 50 50 50h140l-110 111c-19 21-19 56 2 77 20 19 55 19 76-1l181-187h95v94l-187 182c-21 21-21 55-1 76 21 21 55 21 76 1l112-110v140c0 27 21 50 50 50 27 0 50-23 50-50v-139l111 109c21 20 55 20 76-1 20-21 20-55-1-76l-186-182v-94h93l183 187c20 20 55 20 76 1 21-21 21-56 1-77l-110-111h140c27 0 50-23 50-50z" horiz-adv-x="1000" />
<glyph glyph-name="utility-groups" unicode="&#xe81b;" d="m732 81c-50 36-112 64-132 86-16 17-32 40-4 74 72 83 79 157 49 224-29 63-94 85-145 85-51 0-116-22-145-85-30-67-23-141 49-224 28-34 12-57-4-74-20-22-83-50-132-86-57-39-53-59-67-119-2-7-1-15 4-21 4-7 11-12 19-13 3 0 60-11 276-11 215 0 273 11 276 11 8 1 15 6 19 13 4 6 6 14 4 21-14 60-11 80-67 119z m-434 110h1c10 6 22 12 31 18-90 120-74 223-45 288 38 80 110 117 177 126 0 26-7 51-17 75-29 63-94 85-145 85-51 0-116-22-145-85-30-67-23-141 49-224 28-33 12-56-4-74-20-22-83-50-132-85-57-40-53-60-67-119-2-7-1-16 4-22 4-6 11-11 19-12 2 0 49-10 209-12 22 16 45 28 65 41z m701 5c-14 59-11 79-67 119-50 35-112 63-132 85-16 18-32 41-4 74 72 83 79 157 49 224-29 63-94 85-145 85-51 0-116-21-145-85-10-24-16-49-16-75 66-9 138-46 175-126 30-66 46-168-44-288 9-6 22-13 32-18 20-13 43-25 65-41 160 2 206 12 209 12 8 1 15 6 19 12 4 6 6 15 4 22z" horiz-adv-x="1000" />
<glyph glyph-name="utility-help" unicode="&#xe81c;" d="m500 850c-276 0-500-224-500-500 0-276 224-500 500-500s500 224 500 500c0 276-224 500-500 500z m0-876c-41 0-76 35-76 76s35 76 76 76 76-35 76-76-35-76-76-76z m212 446c-14-25-46-57-92-99-21-18-44-41-50-69 0-19-15-35-33-35h-68c-19 0-35 14-35 33 4 103 114 148 163 209 10 13 13 27 13 43 0 21-7 33-22 49-16 15-38 24-65 24-44 0-79-35-88-67-3-15-16-25-32-25h-70c-18 0-33 13-33 32l1 8s2 5 2 6c23 73 96 157 215 157 65 0 117-17 156-54 40-37 61-85 61-134 0-28-9-54-23-78z" horiz-adv-x="1000" />
<glyph glyph-name="utility-image" unicode="&#xe81d;" d="m938 741h-875c-35 0-63-28-63-63v-625c0-35 28-62 63-62h875c34 0 62 27 62 62v625c0 35-28 63-62 63z m-719-125c52 0 94-42 94-94 0-52-42-94-94-94s-94 42-94 94c0 52 42 94 94 94z m-94-500l125 187 146-104 229 292 250-375h-750z" horiz-adv-x="1000" />
<glyph glyph-name="utility-info" unicode="&#xe81e;" d="m500 850c-276 0-500-224-500-500 0-276 224-500 500-500s500 224 500 500c0 276-224 500-500 500z m0-179c43 0 78-35 78-78 0-43-35-78-78-78-43 0-78 35-78 78 0 43 35 78 78 78z m58-609h-118c-28 0-50 23-50 51 0 21 13 39 32 47l0 180c-19 7-32 26-32 47 0 28 23 51 51 51h86c28 0 51-23 51-51l-1-228c19-7 31-25 31-46 0-28-22-51-50-51z" horiz-adv-x="1000" />
<glyph glyph-name="utility-left" unicode="&#xe81f;" d="m747 671c-1 17-10 31-25 39-15 9-32 9-47 0-221-124-411-318-419-327-16-18-16-48 0-66 8-9 198-203 419-327 15-9 32-9 47 0 15 7 24 23 25 39 0 2 9 159 9 321 0 163-9 319-9 321z" horiz-adv-x="1000" />
<glyph glyph-name="utility-like" unicode="&#xe820;" d="m0-117h167v600h-167v-600z m973 570c-26 28-66 30-89 30h-260c14 145 18 257-26 307-14 16-30 26-52 27-58 0-69-55-79-103-17-83-34-194-234-241v-490h38c82 0 110-16 146-39 43-27 93-61 233-61 314 0 319 77 344 401l5 72c3 40-5 74-26 97z" horiz-adv-x="1000" />
<glyph glyph-name="utility-link" unicode="&#xe821;" d="m529 468c-24-24-24-65 0-89 58-57 58-149 0-206l-155-155c-57-57-149-57-206 0-57 57-57 149 0 206l74 74c-18 50-25 103-21 156l-142-142c-106-105-106-277 0-383 106-106 278-106 383 0l156 156c106 105 106 277 0 383-24 25-65 25-89 0z m391 302c-105 107-276 107-383 0l-155-155c-105-105-105-276 0-383 24-24 64-24 88 0 26 24 26 64 0 88-57 58-57 149 0 207l156 155c57 57 150 57 206 0s57-149 0-206l-74-75c19-50 26-102 21-155l141 141c107 107 107 278 0 383z" horiz-adv-x="1000" />
<glyph glyph-name="utility-list" unicode="&#xe822;" d="m99 150c-46 0-83-37-83-83 0-46 37-84 83-84 46 0 83 38 83 84 0 46-37 83-83 83z m0 300c-46 0-83-37-83-83 0-46 37-84 83-84 46 0 83 38 83 84 0 46-37 83-83 83z m249 133h589c21 0 40 15 42 35 4 44 4 54 0 98-2 19-21 34-42 34h-589c-18 0-32-16-32-34v-98c0-21 16-35 32-35z m589-133h-589c-18 0-32-16-32-34v-98c0-21 16-35 32-35h589c21 0 40 15 42 35 4 43 4 54 0 98-2 19-21 34-42 34z m0-300h-589c-18 0-32-16-32-34v-98c0-21 16-35 32-35h589c21 0 40 15 42 35 4 44 4 54 0 98-2 19-21 34-42 34z m-838 600c-46 0-83-37-83-83s37-84 83-84c46 0 83 38 83 84s-37 83-83 83z" horiz-adv-x="1000" />
<glyph glyph-name="utility-location" unicode="&#xe823;" d="m970 675l-322 138c-7 4-17 5-25 4l-1-1c-6 0-12-2-17-6l-236-127-299 130c-16 6-33 5-47-5-15-9-23-25-23-41v-695c0-20 12-38 30-46l321-139c7-3 14-4 21-4s16 2 23 7l236 127 299-129c16-6 34-4 47 5 15 9 23 25 23 41v695c0 20-12 39-30 46z m-408-493c-17-12-23-28-38-56-12-25-19-37-53-75-30-34-39-5-45 9-6 16-12 65-12 65s-7 30-38 35c-78 13-43 132-43 132-20 15-65 53-125 53-36 0-77 8-108 18v328l217-94c18-36 41-46 50-75 17-62-25-89-34-68-16 37-76 28-105 19-44-15-61-42-28-56 33-15 24-11 33 0 10 10 20 13 32 4 10-8 35-15 38-38 3-23 4-33 30-33 32 0 22 8 44 3 21-6 42 5 58 5 17 0 49-19 49-19 49-6 65-9 81-18 14-11 33-45 33-72 0-24-7-43-36-67z m338 35c-19-21-38-34-47-33-21 1-38 23-40 29-9 18-21 86-19 107 6 76-13 84-73 96-25 5-62 10-79 32-65 76-61 120-2 169 20 16 64 36 95 50l165-71v-379z" horiz-adv-x="1000" />
<glyph glyph-name="utility-lock" unicode="&#xe824;" d="m867 329c0 38-31 72-68 72h-32v167c0 160-107 266-267 266-159 0-266-106-266-266v-167h-36c-36 0-64-37-64-75v-357c0-33 21-60 52-66 103-24 209-35 314-35 105 0 209 11 312 35 30 6 55 33 55 66v360z m-467 72v167c0 42 11 100 100 100 90 0 100-58 100-100v-167h-200z" horiz-adv-x="1000" />
<glyph glyph-name="utility-logout" unicode="&#xe825;" d="m178 354c0 135 15 241 24 295 65 14 177 34 314 40v159c-209-8-397-53-406-55-30-8-54-30-61-60-1-6-33-142-33-379s31-380 32-386c7-31 32-53 62-61 9-2 197-47 406-56v161c-137 5-248 26-314 39-9 56-24 166-24 303z m796 19c-5 7-148 169-302 272-12 8-27 8-40 2-12-7-16-20-16-34v-132c-113-11-271-43-291-55-25-13-43-38-43-77s18-62 43-77c20-12 178-43 291-55v-132c0-13 4-27 16-34 6-2 12-4 18-4 8 0 16 2 22 6 154 104 297 265 302 272 11 15 11 34 0 48z" horiz-adv-x="1000" />
<glyph glyph-name="utility-magicwand" unicode="&#xe826;" d="m79 434l25 150-104 106 144 23 65 137 63-137 144-23-103-106 24-150-128 70-130-70z m540 182l147-147-184-184-436-435-146 146 444 444 175 176z m-131-184l94-94 131 131-94 94-131-131z m402-368l110-16-80-82 19-116-99 55-99-55 19 116-79 82 110 16 49 105 50-105z m-103 523l16 95-66 68 90 13 41 87 41-87 91-13-66-68 16-95-82 44-81-44z" horiz-adv-x="1000" />
<glyph glyph-name="utility-new" unicode="&#xe827;" d="m916 433h-333v333c0 45-37 83-83 83s-83-38-83-83v-333h-332c-46 0-84-37-84-83 0-46 38-83 84-83h332v-333c0-45 37-83 83-83s83 38 83 83v333h333c45 0 83 37 83 83 0 46-38 83-83 83z" horiz-adv-x="1000" />
<glyph glyph-name="utility-news" unicode="&#xe828;" d="m952 761l-42-39-46 41-48-41-48 41-38-41-45 41-40-41-40 43-42-43-43 41-48-41-47 40-43-40-41 38-35-38-44 41-38-41-49 41-32-41v-683c0-29-17-40-31-40-20 0-41 22-41 39 0 18 0 683 0 683-26 0-70-11-70-38v-699c0-27 22-49 49-49h900c27 0 49 22 49 49v739c0 0-41 34-47 38z m-428-706h-286v70h286v-70z m0 119h-286v71h286v-71z m0 117h-286v73h286v-73z m380-236h-287v70h287v-70z m0 119h-287v71h287v-71z m0 117h-287v73h287v-73z m0 144h-666v143h666v-143z" horiz-adv-x="1000" />
<glyph glyph-name="utility-notebook" unicode="&#xe829;" d="m927 788v-876c0-34-28-62-62-62h-625c-35 0-63 28-63 62v63h-104c-12 0-21 9-21 21v83c0 12 9 21 21 21h104v188h-104c-12 0-21 9-21 20v84c0 11 9 21 21 21h104v187h-104c-12 0-21 9-21 21v83c0 12 9 21 21 21h104v63c0 34 28 62 63 62h625c34 0 62-28 62-62z m-187-188h-375v-187h375v187z" horiz-adv-x="1000" />
<glyph glyph-name="utility-open" unicode="&#xe82a;" d="m385-41c-115 5-215 15-329 34-32 5-56 33-56 65v691c0 33 24 61 56 67 146 23 295 34 444 34 149 0 297-11 444-34 32-6 56-34 56-67v-566l0-125c-6-70-64-70-153-79l-92-5s-39 48-75 128l187 14v477c-122 9-245 14-367 14-122 0-245-5-367-14v-477c42-5 145-10 187-14 0 0 10-72 65-143z m392 261c-7-11-18-19-31-19h-145c0-120 29-159 62-219 11-19 33-58 15-95-15-31-43-43-84-34-57 13-197 147-197 348h-143c-13 0-24 8-30 19-6 12-5 25 1 36 92 137 247 257 254 262 6 4 14 7 21 7s15-3 21-7c6-5 162-125 254-262 6-10 7-24 2-36z" horiz-adv-x="1000" />
<glyph glyph-name="utility-people" unicode="&#xe82b;" d="m612 153c-17 10-36 17-56 25-35 15-76 30-83 54-6 20 9 48 23 69 68 105 80 196 35 270-34 57-96 91-164 91-68 0-129-34-164-91-45-74-32-165 36-270 13-21 29-49 23-69-8-24-48-39-84-54-20-8-38-15-55-25-63-38-107-96-122-165-2-9-1-17 4-25 5-7 13-12 22-13 3-1 95-14 340-14s337 13 340 14c10 1 17 6 22 13s8 16 5 25c-15 69-60 127-122 165z m387-31c-15 69-59 126-123 164-16 10-34 17-55 26-36 14-76 30-83 54-7 19 9 48 24 68 67 106 79 196 34 270-34 57-95 91-164 91-61 0-94-27-130-73 50-23 81-55 111-104 42-70 60-192-43-355 6-3 12-6 16-8 23-8 46-17 68-30 63-38 111-92 140-153 125 3 177 10 179 11 8 1 17 7 22 14 4 7 6 16 4 25z" horiz-adv-x="1000" />
<glyph glyph-name="utility-phone_landscape" unicode="&#xe82c;" d="m63 663h875c34 0 62-28 62-63v-500c0-35-28-62-62-62h-875c-35 0-63 27-63 62v500c0 35 28 63 63 63z m88-105v-416h698v416h-698z m774-170c-21 0-38-16-38-37 0-22 17-38 38-38 21 0 38 16 38 38 0 21-17 37-38 37z" horiz-adv-x="1000" />
<glyph glyph-name="utility-phone_portrait" unicode="&#xe82d;" d="m813 788v-876c0-34-28-62-63-62h-500c-35 0-62 28-62 62v876c0 34 27 62 62 62h500c35 0 63-28 63-62z m-105-89h-416v-698h416v698z m-170-774c0 21-16 38-37 38-22 0-38-17-38-38s16-38 38-38c21 0 37 17 37 38z" horiz-adv-x="1000" />
<glyph glyph-name="utility-photo" unicode="&#xe82e;" d="m940 575c-5 19-23 35-41 38-52 5-104 9-156 13-8 24-16 55-25 80-7 19-27 37-46 38-57 4-115 6-172 6-56 0-112-2-168-6-18-1-39-19-45-38-10-25-18-56-25-80-53-4-104-8-156-13-18-3-37-19-40-38-44-225-43-349 0-567 3-17 22-34 40-36 132-15 263-22 394-22 132 0 266 7 399 22 18 2 36 19 41 36 36 190 36 379 0 567z m-440-528c-148 0-270 122-270 270s122 270 270 270 270-122 270-270-122-270-270-270z m0 436c-92 0-167-75-167-166s75-167 167-167 167 75 167 167-75 166-167 166z" horiz-adv-x="1000" />
<glyph glyph-name="utility-priority" unicode="&#xe82f;" d="m267 783c0-35-34-64-67-66v-867h-133v867c-37 1-67 30-67 66 0 37 30 67 67 67h133c37 0 67-30 67-67z m707-771c-29-9-82-23-140-23-22 0-44 1-66 6-107 19-138 124-243 152-101 27-258-17-258-17v555c0 0 90 25 179 25 27 1 55-2 79-8 105-28 136-111 243-131 17-3 33-5 50-6 28-1 56 1 83 6 12 1 24 4 36 6 9 2 21 6 30 6 18 0 32-14 33-32v-510c-2-15-12-25-26-29z" horiz-adv-x="1000" />
<glyph glyph-name="utility-push" unicode="&#xe830;" d="m813 787v-875c0-35-28-63-63-63h-500c-35 0-62 28-62 63v875c0 35 27 62 62 62h500c35 0 63-27 63-62z m-105-104h-416v-584h416v584z m-145-709c0 35-28 63-63 63-35 0-62-28-62-63 0-35 27-62 62-62s63 27 63 62z" horiz-adv-x="1000" />
<glyph glyph-name="utility-question" unicode="&#xe831;" d="m475 63c-57 0-107-49-107-106s50-107 107-107c57 0 107 50 107 107s-50 106-107 106z m244 711c-54 51-127 76-219 76-167 0-269-118-301-221 0-1-3-8-3-8l-2-12c0-26 21-44 47-44h98c22 0 41 13 46 35 11 44 61 94 122 94 38 0 69-14 91-34 22-22 32-39 32-69 0-22-4-42-19-60-69-86-224-149-228-294 0-26 22-46 48-46h95c27 0 47 23 47 49 9 40 41 72 70 97 65 58 110 104 129 139 20 33 34 70 34 109 0 69-31 136-87 189z" horiz-adv-x="1000" />
<glyph glyph-name="utility-redo" unicode="&#xe832;" d="m979 413c0-12-9-21-21-21h-395c-9 0-17 4-20 12-2 9-1 18 5 24l122 121c-51 45-118 72-191 72-161 0-291-131-291-292 0-161 130-291 291-291 73 0 140 27 192 71 8 8 21 7 28 0l89-89c0 0 0 0 0-1 5-3 6-8 6-14 0-6-2-10-6-14 0 0 0-1-1-1-81-74-190-119-308-119-252 0-458 206-458 458 0 253 206 459 458 459 119 0 227-46 309-121l155 156c6 6 15 7 23 5 9-3 13-12 13-20v-395l0 0z" horiz-adv-x="1000" />
<glyph glyph-name="utility-refresh" unicode="&#xe833;" d="m950 296c-3-16-17-29-33-29h-21c-69 0-248 3-410 49-12 3-23 15-25 28-2 14 5 28 16 36l131 86c-15 17-31 32-50 42-34 21-73 30-111 26-39-3-76-20-110-49-35-30-59-66-70-106-23-79 9-193 88-253 40-32 91-50 145-57 54-5 108 1 161 28 31 14 68 2 84-30 12-27 4-59-19-77l-1-1c-63-47-147-81-228-84-82-3-167 22-242 65-77 45-145 110-186 189-41 77-59 172-43 266 7 45 22 91 44 133 23 42 51 78 83 110 64 65 164 110 260 123 23 3 45 4 68 4 75 0 150-19 214-58 45-26 84-59 116-98l99 116c10 10 24 14 37 10 13-4 24-15 25-29 26-204-20-431-22-440z" horiz-adv-x="1000" />
<glyph glyph-name="utility-reply" unicode="&#xe834;" d="m467 568v180c0 18-7 33-22 42-16 9-36 8-50-3-192-129-345-330-351-338-14-18-14-43 0-59 6-10 159-211 351-339 8-6 18-8 27-8 8 0 16 2 23 5 15 8 22 25 22 43v179c122-2 253-29 283-86 34-63-1-125-86-157-92-35-72-124 15-123 93 1 288 123 288 327 0 239-253 324-500 337z" horiz-adv-x="1000" />
<glyph glyph-name="utility-retweet" unicode="&#xe835;" d="m760-25h-447c-105 0-188 83-188 188v187h-104c-8 0-16 5-20 13-2 8-1 17 5 23l187 187c8 9 22 9 30 0l188-187c6-6 7-15 5-23-4-8-12-13-20-13h-104v-187c0-12 9-21 21-21h322c6 0 12-3 16-6l126-126c3-4 4-8 4-14 0-12-9-21-21-21z m47 152c-5-4-9-6-15-6s-11 2-15 6l-188 187c-6 6-7 15-4 23 3 8 11 13 19 13h104v188c0 11-9 20-20 20h-323c-6 0-12 3-15 6l-127 126c-3 4-4 8-4 14 0 12 9 21 21 21h448c103 0 187-84 187-187v-188h104c8 0 16-5 20-13 2-8 1-17-5-23l-187-187z" horiz-adv-x="1000" />
<glyph glyph-name="utility-right" unicode="&#xe836;" d="m743 383c-7 9-197 204-418 327-14 9-32 9-47 0-14-8-24-22-25-39 0-2-9-158-9-321 0-162 9-319 9-321 1-16 11-32 25-39 15-9 33-9 47 0 221 124 411 318 418 327 18 18 18 48 0 66z" horiz-adv-x="1000" />
<glyph glyph-name="utility-rotate" unicode="&#xe837;" d="m500-108c-119 0-227 45-309 120l-155-156c-5-4-9-6-15-6-2 0-6 0-8 1-8 4-13 12-13 20v396c0 11 9 21 21 21h396c8 0 16-5 19-13 3-8 2-18-4-23l-123-122c51-45 118-72 191-72 134 0 247 91 281 215 3 9 11 15 20 15h128c6 0 13-3 17-9 3-4 5-10 4-16-41-212-227-371-450-371z m0 916c119 0 227-45 309-120l155 156c5 4 9 6 15 6 3 0 6 0 8-1 8-4 13-12 13-20v-396c0-11-9-20-21-20h-396c-8 0-16 4-19 12-3 8-1 18 4 23l123 122c-51 45-118 72-191 72-134 0-246-91-281-214-3-10-11-15-20-15h-128c-7 0-13 2-17 6-3 6-5 12-4 18 40 212 227 371 450 371z" horiz-adv-x="1000" />
<glyph glyph-name="utility-rows" unicode="&#xe838;" d="m916 267h-832c-46 0-83 37-83 83 0 46 37 83 83 83h832c46 0 83-37 83-83 0-46-37-83-83-83z m0 333h-832c-46 0-83 37-83 83 0 46 37 83 83 83h832c46 0 83-37 83-83 0-46-37-83-83-83z m-832-499h832c46 0 83-38 83-84 0-46-37-83-83-83h-832c-46 0-83 37-83 83 0 46 37 84 83 84z" horiz-adv-x="1000" />
<glyph glyph-name="utility-search" unicode="&#xe839;" d="m0 475c0-207 168-375 375-375 74 0 142 21 200 58l283-284c16-16 38-24 59-24 22 0 43 8 59 24 32 33 32 86 0 118l-284 283c37 58 58 126 58 200 0 207-168 375-375 375-207 0-375-168-375-375z m125 0c0 138 112 250 250 250 138 0 250-112 250-250s-112-250-250-250c-138 0-250 112-250 250z" horiz-adv-x="1000" />
<glyph glyph-name="utility-share" unicode="&#xe83a;" d="m992 484c-5 8-141 184-296 287-13 7-27 8-41 2-12-7-22-20-22-34v-162c-227 0-378-158-392-223-11-46 3-78 38-95 42-20 86 5 108 17 67 38 111 71 246 71v-165c0-14 10-27 22-34 14-6 29-5 41 2 155 103 291 280 296 287 5 7 8 15 8 23s-3 17-8 24z m-259-440h-600v600h434v131c-39 1-95 2-134 2-107 0-216-5-323-15-62-6-110-59-110-121v-594c0-63 48-116 110-121 107-10 216-16 323-16s217 6 323 16c63 5 111 58 111 121v133c-37-35-90-73-134-105v-31z" horiz-adv-x="1000" />
<glyph glyph-name="utility-sms" unicode="&#xe83b;" d="m953 628c-11 76-97 149-172 157-93 10-187 15-281 15s-187-5-281-15c-75-8-161-81-173-157-8-59-13-121-13-182 0-60 5-120 13-178 12-76 98-149 173-158 27-3 54-4 81-6v-171c0-13 7-26 20-31 4-1 8-2 13-2 9 0 17 3 23 9l199 193c75 1 150 5 226 13 75 8 161 77 172 153 10 58 14 119 14 179s-4 122-14 181z m-678-282c-30 0-67 10-79 28-2 3-3 6-3 10 0 12 10 21 21 21 4 0 8-1 11-4 15-9 32-16 53-16 24 0 36 11 36 23 0 37-120 12-120 90 0 35 30 64 79 64 24 0 60-8 72-23 2-4 3-7 3-11 0-12-11-20-22-20-4 0-7 1-11 3-15 8-31 12-46 12-19 0-30-9-30-21 0-33 120-11 120-89 0-38-27-67-84-67z m340 24c0-12-10-22-23-22-12 0-22 10-22 22v126l-56-140c-2-4-7-8-13-8-5 0-10 4-11 8l-57 140v-126c0-12-10-22-22-22-12 0-22 10-22 22v164c0 13 11 25 25 25 20 2 38-3 45-21l43-105 42 105c5 12 17 21 31 21 20 3 40-5 40-25v-164z m115-24c-30 0-68 10-79 28-2 3-4 6-4 10 0 12 11 21 21 21 4 0 9-1 12-4 14-9 32-16 52-16 25 0 37 11 37 23 0 37-120 12-120 90 0 35 30 64 79 64 23 0 60-8 71-23 3-4 4-7 4-11 0-12-12-20-22-20-4 0-8 1-11 3-15 8-31 12-46 12-19 0-30-9-30-21 0-33 120-11 120-89 0-38-28-67-84-67z" horiz-adv-x="1000" />
<glyph glyph-name="utility-socialshare" unicode="&#xe83c;" d="m817-150c-91 0-165 65-180 151l-348 182c-30-20-66-33-106-33-101 0-183 82-183 183s82 184 183 184c40 0 76-13 106-34l344 182v2c0 101 83 183 184 183s183-82 183-183-82-184-183-184c-40 0-76 13-105 34l-345-182v-4l320-168c33 33 79 54 130 54 101 0 183-83 183-184s-82-183-183-183z" horiz-adv-x="1000" />
<glyph glyph-name="utility-sort" unicode="&#xe83d;" d="m270 846c3 2 5 3 8 3 4 0 6-1 9-3l238-250c3-3 4-8 3-13-2-4-7-7-11-7h-156v-714c0-6-5-11-11-11h-143c-6 0-11 5-11 11v714h-156c-5 0-9 3-11 7-1 5-1 10 3 13l238 250z m460-992c-3-2-5-3-8-3-3 0-6 1-9 3l-238 250c-3 3-4 9-3 13 2 4 7 7 11 7h156v714c0 6 5 11 11 11h143c6 0 11-5 11-11v-714h156c5 0 9-3 11-7 1-4 1-10-3-13l-238-250z" horiz-adv-x="1000" />
<glyph glyph-name="utility-spinner" unicode="&#xe83e;" d="m508 577v78c-172 0-310-139-310-311 0-171 138-310 310-310 171 0 310 139 310 310 0 83-33 158-86 214l75 71c71-74 114-174 114-285 0-228-185-413-413-413-229 0-414 185-414 413 0 229 185 414 414 414v77l155-129-155-129z" horiz-adv-x="1016" />
<glyph glyph-name="utility-success" unicode="&#xe83f;" d="m500 850c-276 0-500-224-500-500s224-500 500-500 500 224 500 500-224 500-500 500z m311-365l-380-380c-3-3-6-4-10-4-3 0-6 1-9 4l-223 222c-5 5-5 14 0 19l92 92c5 5 14 5 19 0l121-122 279 279c5 5 14 5 19 0l92-91c5-6 5-14 0-19z" horiz-adv-x="1000" />
<glyph glyph-name="utility-tablet_landscape" unicode="&#xe840;" d="m938 750h-875c-35 0-63-28-63-62v-675c0-35 28-63 63-63h875c34 0 62 28 62 63v675c0 34-28 62-62 62z m-63-675h-750v550h750v-550z m64 245c-17 0-30 13-30 30 0 17 13 30 30 30s30-13 30-30c0-17-13-30-30-30z" horiz-adv-x="1000" />
<glyph glyph-name="utility-tablet_portrait" unicode="&#xe841;" d="m838 850h-675c-35 0-63-28-63-62v-876c0-34 28-62 63-62h675c34 0 62 28 62 62v876c0 34-28 62-62 62z m-338-969c-17 0-30 13-30 30s13 30 30 30c17 0 30-13 30-30s-13-30-30-30z m275 94h-550v750h550v-750z" horiz-adv-x="1000" />
<glyph glyph-name="utility-topic" unicode="&#xe842;" d="m612 464l-113 386-112-386-387-113 387-113 112-387 113 387 387 113-387 113z m-112-227c-62 0-112 50-112 112 0 61 50 111 112 111 62 0 112-50 112-111 0-62-50-112-112-112z m-160 273l18 62-13 6-154 81 83-158 4-9 62 18m318 0l62-18 4 9 83 158-154-81-13-6 18-62m-318-318l-62 18-4-9-83-158 154 81 13 6-18 62m318 0l-18-62 13-6 154-81-83 158-4 9-62-18" horiz-adv-x="1000" />
<glyph glyph-name="utility-undo" unicode="&#xe843;" d="m521-129c-118 0-227 45-308 119 0 0 0 0-1 0v1c-4 4-6 8-6 14 0 6 1 11 5 14 1 1 1 1 1 1l89 89c7 7 20 8 28 0 51-44 119-71 192-71 161 0 292 130 292 291 0 161-131 292-292 292-73 0-140-27-191-72l123-121c5-6 7-15 4-24-3-8-11-12-19-12h-396c-12 0-21 9-21 21v395c0 8 5 17 13 20 8 2 17 1 23-5l155-156c82 75 190 121 309 121 252 0 458-206 458-459 0-252-206-458-458-458z" horiz-adv-x="1000" />
<glyph glyph-name="utility-up" unicode="&#xe844;" d="m860 176c-124 220-318 411-327 418-18 16-48 16-66 0-9-8-203-198-327-418-9-15-9-32 0-47 7-14 23-25 39-26 2 0 159-9 321-9 163 0 319 9 321 9 17 1 31 12 39 26s9 33 0 47z" horiz-adv-x="1000" />
<glyph glyph-name="utility-upload" unicode="&#xe845;" d="m237 466h135c13-85 37-176 51-199 12-21 39-35 77-35s65 14 77 35c12 20 37 114 51 199h136c14 0 27 8 34 20 6 13 5 29-2 41-104 153-265 292-272 297-7 5-16 8-24 8s-17-3-24-8c-7-5-169-144-272-297-7-12-8-28-2-41 7-12 20-20 35-20z m601-134c0-141-12-241-20-300h-636c-8 58-19 158-19 300h-163c0-268 37-401 38-406 10-35 42-60 80-60h763c38 0 71 25 82 61 1 5 37 139 37 405h-162z" horiz-adv-x="1000" />
<glyph glyph-name="utility-builder" unicode="&#xe846;" d="m1000 541v232c0 42-35 77-78 77h-843c-43 0-79-35-79-77v-232h1000z m-78-691c43 0 78 35 78 77v537h-616v-614h538z m-614 0v614h-308v-537c0-42 36-77 79-77l229 0 0 0z" horiz-adv-x="1000" />
<glyph glyph-name="utility-richtextbulletedlist" unicode="&#xe847;" d="m350 758h650v-102h-650v102z m0-357h650v-102h-650v102z m0-357h650v-102h-650v102z m-137 663c0-59-47-106-106-106-59 0-107 47-107 106 0 59 48 107 107 107 59 0 106-48 106-107z m2-356c0-59-47-106-106-106-59 0-107 47-107 106 0 59 48 107 107 107 59 0 106-48 106-107z m-2-358c0-59-47-107-106-107-59 0-107 48-107 107 0 59 48 107 107 107 59 0 106-48 106-107z" horiz-adv-x="1000" />
<glyph glyph-name="utility-richtextnumberedlist" unicode="&#xe848;" d="m117 597c-4-3-9-5-14-5-5 0-9 2-13 5-3 4-5 9-5 13v187l-32-33c-3-3-6-5-11-5-4 0-7 2-11 5-3 3-5 6-5 11 0 5 2 8 5 11l54 56c4 4 9 6 16 6 5 0 10-2 15-6 4-4 6-9 6-15v-217c0-4-2-9-5-13z m67-358c0-5-1-9-5-12-3-3-7-5-11-5h-149c-4 0-9 2-12 5-4 4-5 8-5 13 0 3 0 6 1 8 2 3 3 5 6 7 22 17 42 32 58 46 17 14 31 26 42 38 11 12 20 23 25 33 6 10 9 20 9 29 0 8-2 15-5 20-3 5-6 9-11 13-4 4-10 6-15 8-6 1-12 2-19 2-12 0-22-2-32-5-10-4-19-9-26-16-3-3-7-4-11-4-4 0-8 1-11 5-4 3-6 7-6 11 0 4 1 8 4 11 5 5 10 9 16 13 6 4 13 7 20 10 7 3 15 5 23 6 7 2 15 3 23 3 11 0 22-2 33-5 10-4 19-8 28-14 8-7 14-15 19-24 5-10 7-21 7-34 0-12-3-24-8-35-6-12-14-24-24-36-10-12-23-24-37-37-14-12-30-24-47-38h104c4 0 8-1 11-5 4-3 5-6 5-11z m-7-316c0-10-2-19-7-28-4-8-10-16-18-22-8-7-17-12-28-15-11-4-24-6-37-6-9 0-18 1-26 3-8 2-16 4-23 7-7 3-14 6-20 10-5 4-10 8-14 13-3 2-4 6-4 9 0 4 2 8 5 12 3 3 7 5 11 5 4 0 7-1 10-4 8-7 17-12 27-16 10-4 21-6 33-6 17 0 30 4 40 11 9 8 14 18 14 31 0 7-1 13-4 18-3 5-7 9-11 12-6 3-12 5-19 7-7 2-15 2-24 2-3 0-7 0-10 0-3 1-7 1-9 2-3 1-6 3-7 5-2 3-3 6-3 10 0 4 2 8 5 11 3 3 6 5 11 5 9-1 17 0 25 1 9 1 16 3 22 5 6 3 11 7 14 11 4 5 6 12 6 19 0 7-1 12-4 17-3 5-7 9-11 12-5 4-11 6-17 7-7 2-13 3-21 3-10 0-20-2-29-5-9-4-17-9-26-15-2-2-5-3-9-3-4 0-8 1-11 4-3 3-5 7-5 11 0 5 2 8 5 11 10 9 21 16 34 22 13 5 28 8 45 8 12 0 24-2 34-5 11-3 20-7 27-13 8-5 14-12 18-21 4-8 7-17 7-28 0-8-2-15-6-22-3-6-7-12-12-17-5-5-11-9-17-11-6-4-13-5-19-6 6-1 12-2 19-5 6-3 13-7 18-12 6-5 11-10 15-18 4-7 6-16 6-26z m149 849h674v-105h-674v105z m0-369h674v-106h-674v106z m0-371h674v-105h-674v105z" horiz-adv-x="1000" />
<glyph glyph-name="utility-richtextindent" unicode="&#xe849;" d="m349 596h651v-102h-651v102z m0-195h651v-102h-651v102z m0-195h651v-101h-651v101z m-349-194h1000v-102h-1000v102z m13 511l201-165c2-1 2-3 2-5 0-2 0-5-2-6l-201-165c-2-2-5-2-8-1-2 1-4 4-4 7v330c0 3 2 5 4 6 3 1 6 1 8-1z m-13 267h1000v-102h-1000v102z" horiz-adv-x="1000" />
<glyph glyph-name="utility-richtextoutdent" unicode="&#xe850;" d="m349 594h651v-102h-651v102z m0-195h651v-102h-651v102z m0-195h651v-101h-651v101z m-349-194h1000v-102h-1000v102z m213 512c2-1 4-3 4-6v-330c0-3-2-6-4-7-3-1-6-1-8 1l-201 165c-2 1-3 4-3 6 0 2 1 4 3 5l201 166c2 1 5 1 8 0z m-213 266h1000v-101h-1000v101z" horiz-adv-x="1000" />
<glyph glyph-name="utility-questions_and_answers" unicode="&#xe851;" d="m848 141c-17-47-42-92-75-134-75-97-183-157-275-157-85 0-182 53-257 146-37 44-64 93-84 144-92 17-155 57-155 201 0 113 39 162 103 186 47 145 157 323 393 323 235 0 345-177 393-322 64-24 107-72 107-187 0-140-61-182-150-200z m-153-72c12 15 27 37 40 64-86-39-159-54-185-58-12-15-31-25-52-25-38 0-67 30-67 67 0 37 29 66 67 66 24 0 45-12 57-32 40 8 119 30 209 82 6 39 7 83-4 131-64-6-144 23-235 86-25 18-47 37-67 55-12-20-27-40-44-59-57-58-125-90-183-88-15-103 15-211 87-299 55-67 126-115 180-115 51 0 131 41 197 125z" horiz-adv-x="1000" />
<glyph glyph-name="utility-cases" unicode="&#xe852;" d="m0 814h133v-700h-133v700z m153-912c-14 15-21 45-10 61 28 44 75 103 124 157-21 38-34 81-34 128 0 147 120 266 267 266s266-119 266-266-119-267-266-267c-47 0-91 12-129 33-61-53-116-97-157-124-16-9-45-4-61 12z m47 490v422h67v-328c-27-27-50-58-67-94z m470-143c0 91-78 170-170 170s-170-79-170-170c0-93 78-171 170-171s170 78 170 171z m-270 317c-24-7-46-17-67-30v278h67v-248z m100 16c-11 0-22-1-33-2v234h166v-260c-40 18-85 28-133 28z m200-67v299h100v-419c-24 47-58 88-100 120z m300 299v-700h-133v700h133z" horiz-adv-x="1000" />
<glyph glyph-name="utility-knowledge_base" unicode="&#xe853;" d="m1000 699v-698c0-19-16-34-34-34h-346c-22-39-67-67-120-67s-98 28-120 67h-346c-18 0-34 15-34 34v698c0 19 16 34 34 34h66v-600c0-18 15-33 33-33h100c79 0 185-13 242-76 14-15 37-14 50 0 57 63 164 76 242 76h101c17 0 32 15 32 33v600h66c18 0 34-15 34-34z m-833 101h71c114 0 179-16 229-103v-582c-72 41-163 52-234 52h-66v633z m597 0h69v-633h-65c-71 0-163-11-235-52v582c50 87 116 103 231 103z" horiz-adv-x="1000" />
<glyph glyph-name="utility-shield" unicode="&#xe854;" d="m924 779c0 0-124-32-223-32-99 0-202 42-202 42s-99-42-200-42c-101 0-223 32-223 32s-22-69-22-177c0-277 88-451 208-550 72-59 189-141 237-141 48 0 166 82 238 142 120 99 209 272 209 549 0 106-22 177-22 177z" horiz-adv-x="1000" />
</font>
</defs>
</svg>
